<svg width="161" height="167" viewBox="0 0 161 167" fill="none" xmlns="http://www.w3.org/2000/svg">
<path d="M155 79.5C155 122.302 120.302 157 77.5 157C34.6979 157 0 122.302 0 79.5C0 36.6979 34.6979 2 77.5 2C120.302 2 155 36.6979 155 79.5ZM36.3803 79.5C36.3803 102.21 54.7902 120.62 77.5 120.62C100.21 120.62 118.62 102.21 118.62 79.5C118.62 56.7902 100.21 38.3803 77.5 38.3803C54.7902 38.3803 36.3803 56.7902 36.3803 79.5Z" fill="#F0F7FF"/>
<g filter="url(#filter0_d)">
<path d="M77.5 2C90.7809 2 103.839 5.41297 115.422 11.9115C127.004 18.41 136.722 27.7759 143.643 39.1107C150.565 50.4455 154.457 63.3688 154.947 76.6407C155.437 89.9126 152.508 103.088 146.442 114.902C140.375 126.716 131.374 136.773 120.302 144.108C109.23 151.443 96.4594 155.81 83.2146 156.789C69.9698 157.768 56.6956 155.328 44.6655 149.701C32.6354 144.074 22.2532 135.45 14.5148 124.657L44.3632 103.257C48.4343 108.936 53.8965 113.473 60.2256 116.433C66.5547 119.393 73.5383 120.677 80.5065 120.162C87.4747 119.647 94.1935 117.35 100.018 113.491C105.843 109.632 110.579 104.341 113.771 98.1252C116.962 91.9097 118.503 84.9781 118.245 77.9957C117.988 71.0133 115.94 64.2143 112.298 58.251C108.657 52.2877 103.544 47.3602 97.4507 43.9413C91.3571 40.5224 84.4872 38.7268 77.5 38.7268V2Z" fill="#F58B11"/>
</g>
<defs>
<filter id="filter0_d" x="8.51477" y="0" width="152.485" height="167" filterUnits="userSpaceOnUse" color-interpolation-filters="sRGB">
<feFlood flood-opacity="0" result="BackgroundImageFix"/>
<feColorMatrix in="SourceAlpha" type="matrix" values="0 0 0 0 0 0 0 0 0 0 0 0 0 0 0 0 0 0 127 0"/>
<feOffset dy="4"/>
<feGaussianBlur stdDeviation="3"/>
<feColorMatrix type="matrix" values="0 0 0 0 0.968627 0 0 0 0 0.466667 0 0 0 0 0.0235294 0 0 0 0.15 0"/>
<feBlend mode="normal" in2="BackgroundImageFix" result="effect1_dropShadow"/>
<feBlend mode="normal" in="SourceGraphic" in2="effect1_dropShadow" result="shape"/>
</filter>
</defs>
</svg>
